<svg width="1200" height="900" viewBox="0 0 1200 900" fill="none" xmlns="http://www.w3.org/2000/svg" role="img" aria-labelledby="title desc">
  <title id="title">Chatbot de Marca — DoubleCheck</title>
  <desc id="desc">Ilustración moderna de chatbot con estilo de marca en verdes y sombras suaves.</desc>
  <defs>
    <linearGradient id="brand" x1="0" y1="0" x2="1" y2="1">
      <stop offset="0%" stop-color="#557215"/>
      <stop offset="100%" stop-color="#94CE10"/>
    </linearGradient>
    <radialGradient id="glow" cx="50%" cy="50%" r="50%">
      <stop offset="0%" stop-color="rgba(148,206,16,0.25)"/>
      <stop offset="100%" stop-color="rgba(148,206,16,0)"/>
    </radialGradient>
    <filter id="blur16" x="-50%" y="-50%" width="200%" height="200%">
      <feGaussianBlur stdDeviation="16"/>
    </filter>
  </defs>
  <rect width="1200" height="900" fill="#0b1220"/>
  <!-- Mesh-like glows -->
  <ellipse cx="260" cy="720" rx="280" ry="140" fill="url(#glow)"/>
  <ellipse cx="980" cy="220" rx="240" ry="120" fill="url(#glow)"/>
  <!-- Chatbot base -->
  <g transform="translate(600,460)">
    <circle r="210" fill="#0e1628"/>
    <circle r="210" fill="url(#glow)" filter="url(#blur16)"/>
    <rect x="-230" y="-130" width="460" height="250" rx="36" fill="#0f1a30" stroke="rgba(255,255,255,0.08)"/>
    <!-- Headband -->
    <rect x="-200" y="-120" width="400" height="80" rx="24" fill="#101e36" stroke="rgba(255,255,255,0.06)"/>
    <!-- Eyes -->
    <circle cx="-90" cy="-80" r="14" fill="#e7fbd3"/>
    <circle cx="90" cy="-80" r="14" fill="#e7fbd3"/>
    <!-- Smile -->
    <path d="M-70 0 Q0 42 70 0" stroke="url(#brand)" stroke-width="10" fill="none" stroke-linecap="round"/>
    <!-- Antenna -->
    <line x1="0" y1="-130" x2="0" y2="-200" stroke="url(#brand)" stroke-width="8" stroke-linecap="round"/>
    <circle cx="0" cy="-220" r="16" fill="url(#brand)"/>
  </g>
  <!-- Chat bubbles -->
  <g font-family="Inter, Poppins, system-ui" font-size="20">
    <rect x="220" y="230" rx="16" ry="16" width="360" height="60" fill="#0f1a30" stroke="rgba(255,255,255,0.08)"/>
    <text x="240" y="268" fill="#e5e7eb">Hola 👋 ¿Qué construimos para tu marca hoy?</text>

    <rect x="690" y="320" rx="16" ry="16" width="380" height="60" fill="#0f1a30" stroke="rgba(255,255,255,0.08)"/>
    <text x="710" y="358" fill="#94CE10">Genera un logo, paleta y landing</text>

    <rect x="240" y="410" rx="16" ry="16" width="340" height="60" fill="#0f1a30" stroke="rgba(255,255,255,0.08)"/>
    <text x="260" y="448" fill="#e5e7eb">Listo. También puedo crear tus anuncios.</text>
  </g>
  <!-- Accents -->
  <g opacity="0.6">
    <circle cx="180" cy="760" r="110" fill="none" stroke="url(#brand)" stroke-width="6"/>
    <circle cx="1080" cy="160" r="90" fill="none" stroke="url(#brand)" stroke-width="6"/>
  </g>
</svg>
