<svg width="1200" height="900" viewBox="0 0 1200 900" fill="none" xmlns="http://www.w3.org/2000/svg" role="img" aria-labelledby="title desc">
  <title id="title">Chatbot Prototype — DoubleCheck</title>
  <desc id="desc">Ilustración moderna del prototipo de chatbot con acentos verdes de marca.</desc>
  <defs>
    <linearGradient id="brand" x1="0" y1="0" x2="1" y2="1">
      <stop offset="0%" stop-color="#557215"/>
      <stop offset="100%" stop-color="#94CE10"/>
    </linearGradient>
    <radialGradient id="mesh" cx="50%" cy="50%" r="60%">
      <stop offset="0%" stop-color="rgba(148,206,16,0.22)"/>
      <stop offset="100%" stop-color="rgba(148,206,16,0)"/>
    </radialGradient>
  </defs>
  <rect width="1200" height="900" fill="#0b1220"/>
  <ellipse cx="260" cy="760" rx="280" ry="140" fill="url(#mesh)"/>
  <ellipse cx="960" cy="200" rx="240" ry="120" fill="url(#mesh)"/>
  <g transform="translate(600,470)">
    <circle r="220" fill="#0f1a30"/>
    <circle r="220" fill="url(#mesh)"/>
    <rect x="-240" y="-140" width="480" height="260" rx="36" fill="#0e1628" stroke="rgba(255,255,255,0.08)"/>
    <rect x="-210" y="-120" width="420" height="90" rx="24" fill="#101e36" stroke="rgba(255,255,255,0.06)"/>
    <circle cx="-100" cy="-80" r="14" fill="#e7fbd3"/>
    <circle cx="100" cy="-80" r="14" fill="#e7fbd3"/>
    <path d="M-80 0 Q0 46 80 0" stroke="url(#brand)" stroke-width="10" fill="none" stroke-linecap="round"/>
    <line x1="0" y1="-140" x2="0" y2="-210" stroke="url(#brand)" stroke-width="8" stroke-linecap="round"/>
    <circle cx="0" cy="-230" r="16" fill="url(#brand)"/>
  </g>
  <g font-family="Inter, Poppins, system-ui" font-size="20">
    <rect x="220" y="240" rx="16" ry="16" width="360" height="60" fill="#0f1a30" stroke="rgba(255,255,255,0.08)"/>
    <text x="240" y="278" fill="#e5e7eb">Hola 👋 ¿Qué creamos para tu marca?</text>
    <rect x="700" y="330" rx="16" ry="16" width="380" height="60" fill="#0f1a30" stroke="rgba(255,255,255,0.08)"/>
    <text x="720" y="368" fill="#94CE10">Un logo, una paleta y una landing</text>
  </g>
</svg>
