<svg width="257" height="229" viewBox="0 0 257 229" fill="none" xmlns="http://www.w3.org/2000/svg">
<path fill-rule="evenodd" clip-rule="evenodd" d="M212.931 8.06139C181.898 33.8739 154.711 62.6645 131.37 94.4332C122.51 108.132 114.624 122.335 107.711 137.043C97.4278 162.12 87.8808 187.456 79.0709 213.05C76.7411 218.326 73.6281 223.125 69.7318 227.446C62.2718 229.311 56.0457 227.584 51.0537 222.263C40.7346 199.327 27.2452 178.214 10.5843 158.924C7.03171 156.4 3.50402 153.905 0 151.439C2.66724 143.061 6.40288 135.19 11.2069 127.83C23.8744 133.974 34.4587 142.42 42.9598 153.166C48.9953 162.037 55.0147 170.867 61.0154 179.653C84.7404 124.836 120.852 78.1953 169.349 39.7311C183.387 28.4613 197.914 17.9043 212.931 8.06139Z" fill="#557215"/>
<path fill-rule="evenodd" clip-rule="evenodd" d="M256.514 0C225.48 25.8125 198.294 54.6031 174.952 86.3718C166.093 100.07 158.207 114.273 151.293 128.982C141.01 154.059 131.463 179.394 122.653 204.989C120.324 210.265 117.211 215.064 113.314 219.384C105.854 221.25 99.6281 219.523 94.6361 214.202C84.317 191.265 70.8276 170.152 54.1667 150.863C50.6141 148.338 47.0864 145.844 43.5824 143.377C46.2496 134.999 49.9853 127.129 54.7893 119.769C67.4568 125.913 78.0411 134.359 86.5422 145.105C92.5777 153.976 98.5971 162.805 104.598 171.592C128.323 116.775 164.434 70.1339 212.931 31.6697C226.97 20.3999 241.496 9.84293 256.514 0Z" fill="#94CE10"/>
</svg>
